<svg width="15" height="15" viewBox="0 0 15 15" fill="none" xmlns="http://www.w3.org/2000/svg">
<path d="M13.8197 4.0425L9.13219 1.46437C9.06298 1.42629 8.98526 1.40633 8.90626 1.40633C8.82726 1.40633 8.74954 1.42629 8.68032 1.46437L3.99282 4.0425C3.91933 4.08296 3.85804 4.14241 3.81535 4.21464C3.77267 4.28686 3.75015 4.36922 3.75015 4.45312C3.75015 4.53702 3.77267 4.61938 3.81535 4.69161C3.85804 4.76383 3.91933 4.82328 3.99282 4.86375L8.43751 7.30828V12.3328L7.01438 11.55L6.56251 12.3708L8.68032 13.5356C8.74951 13.5738 8.82724 13.5938 8.90626 13.5938C8.98527 13.5938 9.063 13.5738 9.13219 13.5356L13.8197 10.9575C13.8932 10.917 13.9545 10.8576 13.9972 10.7854C14.04 10.7132 14.0625 10.6308 14.0625 10.5469V4.45312C14.0625 4.36921 14.04 4.28684 13.9972 4.21461C13.9545 4.14238 13.8932 4.08294 13.8197 4.0425ZM8.90626 2.41031L12.6211 4.45312L8.90626 6.49593L5.19141 4.45312L8.90626 2.41031ZM13.125 10.2698L9.37501 12.3323V7.30781L13.125 5.24531V10.2698Z" fill="#50AF5A"/>
<path d="M4.6875 7.5H0.9375V6.5625H4.6875V7.5ZM5.625 11.25H1.875V10.3125H5.625V11.25ZM6.5625 9.375H2.8125V8.4375H6.5625V9.375Z" fill="#50AF5A"/>
</svg>
